<svg width="1920" height="320" viewBox="0 0 1920 320" fill="none" xmlns="http://www.w3.org/2000/svg">
<path d="M-5 224L59.1667 240C123.333 256 251.667 288 380 282.7C508.333 277 636.667 235 765 234.7C893.333 235 1021.67 277 1150 261.3C1278.33 245 1406.67 171 1535 149.3C1663.33 128 1791.67 160 1855.83 176L1920 192V320H1855.83C1791.67 320 1663.33 320 1535 320C1406.67 320 1278.33 320 1150 320C1021.67 320 893.333 320 765 320C636.667 320 508.333 320 380 320C251.667 320 123.333 320 59.1667 320H-5V224Z" fill="#0A0A0A"/>
</svg>
