<svg width="40" height="40" viewBox="0 0 40 40" fill="none" xmlns="http://www.w3.org/2000/svg">
<path fill-rule="evenodd" clip-rule="evenodd" d="M19.999 0C8.95436 0 0 8.95487 0 20.001C0 28.8374 5.72923 36.3338 13.6774 38.9769C14.6785 39.162 15.0426 38.5462 15.0426 38.0144C15.0426 37.5405 15.0251 36.2836 15.0164 34.6128C9.45282 35.8226 8.27897 31.9313 8.27897 31.9313C7.36923 29.621 6.05795 29.0067 6.05795 29.0067C4.24205 27.7667 6.1959 27.7908 6.1959 27.7908C8.20308 27.9328 9.25949 29.8513 9.25949 29.8513C11.0431 32.9077 13.941 32.0231 15.08 31.5144C15.261 30.2195 15.779 29.34 16.3497 28.839C11.9092 28.3344 7.24051 26.6185 7.24051 18.9549C7.24051 16.7708 8.01949 14.9851 9.29846 13.5867C9.09385 13.0831 8.40615 11.0497 9.49487 8.29487C9.49487 8.29487 11.1738 7.75743 14.9954 10.3467C16.5897 9.90102 18.301 9.67846 20.0021 9.67179C21.7005 9.67897 23.4123 9.90102 25.0087 10.3467C28.8277 7.75743 30.5041 8.29487 30.5041 8.29487C31.5954 11.0497 30.9082 13.0831 30.7031 13.5867C31.9851 14.9851 32.7585 16.7708 32.7585 18.9549C32.7585 26.6364 28.0831 28.3287 23.6277 28.822C24.3446 29.44 24.9846 30.6631 24.9846 32.5292C24.9846 35.2015 24.9605 37.3579 24.9605 38.0138C24.9605 38.5497 25.32 39.1728 26.3354 38.9744C34.2749 36.3256 40 28.8349 40 20.001C40 8.95487 31.0456 0 19.999 0Z" fill="#0A0A0A"/>
</svg>
