<svg width="40" height="52" viewBox="0 0 40 52" fill="none" xmlns="http://www.w3.org/2000/svg">
<path d="M29.2745 46.8731H3.7259L3.86014 29.7785L0.0212595 29.7421L0 51.0248H33.3187V29.8417H29.2745V46.8731Z" fill="#0A0A0A"/>
<path d="M6.2807 39.8488H26.2933V44.1055H6.2807V39.8488Z" fill="#0A0A0A"/>
<path d="M6.75029 32.1852L26.7767 34.1186L26.3572 38.4634L6.33082 36.53L6.75029 32.1852Z" fill="#0A0A0A"/>
<path d="M8.58223 23.5182L27.9447 28.9825L26.7595 33.1821L7.39705 27.7178L8.58223 23.5182Z" fill="#0A0A0A"/>
<path d="M13.2769 13.724L30.4987 24.1255L28.2421 27.8618L11.0203 17.4604L13.2769 13.724Z" fill="#0A0A0A"/>
<path d="M31.2425 23.3451L19.5252 6.99043L23.073 4.44866L34.7902 20.8033L31.2425 23.3451Z" fill="#0A0A0A"/>
<path d="M32.3777 0.719604L36.6822 -6.90336e-05L39.9999 19.8438L35.6954 20.5635L32.3777 0.719604Z" fill="#0A0A0A"/>
</svg>
